<svg width="100" height="100" viewBox="0 0 100 100" fill="none" xmlns="http://www.w3.org/2000/svg">
<path d="M17 21C19.2389 25.8571 23.3216 29.8614 26.7778 33.9149C28.2518 35.6436 29.3896 37.6406 30.6667 39.5065C32.0877 41.5827 33.1756 44.223 35 46" stroke="white" stroke-width="3" stroke-linecap="round" stroke-linejoin="round"/>
<path d="M12 42C16.2449 39.5828 19.6326 36.3744 23.5169 33.4865C25.7196 31.8488 27.9192 30.152 29.9151 28.2763C31.4858 26.8002 33.4992 25.5435 34.7372 23.7568C35.269 22.9892 36.0719 22.2977 37 22" stroke="white" stroke-width="3" stroke-linecap="round" stroke-linejoin="round"/>
<path d="M32 21C32.8814 22.3221 34.0331 24.4906 35.5 25.3056C36.0664 25.6202 36.9796 26.9592 37.25 27.5" stroke="white" stroke-width="3" stroke-linecap="round" stroke-linejoin="round"/>
<path d="M14.25 26.5C15.704 25.6209 16.9855 24.6543 18.3056 23.6389C19.2989 22.8748 19.7367 21.4211 21 21" stroke="white" stroke-width="3" stroke-linecap="round" stroke-linejoin="round"/>
<path d="M13 36C14.1083 37.1083 15.4321 37.9308 16.4444 39.0556C17.2244 39.9222 18.6271 41.1312 19 42.25" stroke="white" stroke-width="3" stroke-linecap="round" stroke-linejoin="round"/>
<path d="M29 45.5C30.0448 44.7614 31.3858 44.046 32.3056 43.1944C32.9801 42.5698 33.5619 41.7934 34.3056 41.25C35.088 40.6782 36.1963 39.911 36.5 39" stroke="white" stroke-width="3" stroke-linecap="round" stroke-linejoin="round"/>
<path d="M18 31.5C20.8002 31.5 23.3476 32.3131 26.0972 32.7361C28.4165 33.0929 30.91 33.75 33.25 33.75" stroke="white" stroke-width="3" stroke-linecap="round" stroke-linejoin="round"/>
<path d="M24.25 40.25C24.2912 38.107 25 35.9729 25 33.875C25 32.9514 25.3182 31.5965 25.6944 30.75C26.4013 29.1596 26.75 26.7397 26.75 25" stroke="white" stroke-width="3" stroke-linecap="round" stroke-linejoin="round"/>
<path d="M61.1113 34.1048C64.8648 37.9146 70.0636 40.297 74.6897 42.938C76.6626 44.0643 78.4103 45.5571 80.2445 46.8793C82.2855 48.3505 84.2044 50.4653 86.5233 51.5183" stroke="white" stroke-width="3" stroke-linecap="round" stroke-linejoin="round"/>
<path d="M62.8129 54.7104C66.5191 51.5283 69.233 47.7329 72.4955 44.1574C74.3456 42.1298 76.1813 40.0448 77.7831 37.823C79.0435 36.0745 80.7805 34.457 81.6551 32.467C82.0308 31.6122 82.6872 30.7802 83.5415 30.3111" stroke="white" stroke-width="3" stroke-linecap="round" stroke-linejoin="round"/>
<path d="M79.0615 30.8222C80.3391 31.767 82.158 33.4164 83.8143 33.6855C84.4539 33.7894 85.767 34.7393 86.2049 35.1564" stroke="white" stroke-width="3" stroke-linecap="round" stroke-linejoin="round"/>
<path d="M62.3751 40.5587C63.4447 39.2385 64.3225 37.8946 65.2199 36.4917C65.8953 35.436 65.8141 33.92 66.8597 33.0954" stroke="white" stroke-width="3" stroke-linecap="round" stroke-linejoin="round"/>
<path d="M62.5908 49.5163C63.6904 50.6331 65.0079 51.4658 66.0115 52.5984C66.7847 53.4711 68.1779 54.691 68.5422 55.8126" stroke="white" stroke-width="3" stroke-linecap="round" stroke-linejoin="round"/>
<path d="M80.7094 53.0828C81.4418 52.0337 82.4607 50.9059 83.0371 49.7928C83.4598 48.9765 83.7438 48.0487 84.2591 47.2853C84.8012 46.482 85.5837 45.3844 85.5604 44.4244" stroke="white" stroke-width="3" stroke-linecap="round" stroke-linejoin="round"/>
<path d="M66.7568 43.2269C69.4939 42.6358 72.1556 42.8929 74.9325 42.726C77.2749 42.5853 79.8508 42.7012 82.1382 42.2073" stroke="white" stroke-width="3" stroke-linecap="round" stroke-linejoin="round"/>
<path d="M74.7374 50.4755C74.3199 48.3732 74.5565 46.1369 74.1084 44.0875C73.9111 43.1852 73.9326 41.7935 74.1193 40.8862C74.4701 39.1816 74.2939 36.7431 73.9223 35.0435" stroke="white" stroke-width="3" stroke-linecap="round" stroke-linejoin="round"/>
<path d="M47.0889 57.5559C45.6034 60.9629 45.4128 64.9325 44.907 68.5997C44.6913 70.1637 44.181 71.6772 43.8031 73.2025C43.3826 74.8996 42.5154 76.6846 42.4366 78.4528" stroke="white" stroke-width="2" stroke-linecap="round" stroke-linejoin="round"/>
<path d="M33.8805 64.6687C37.097 65.754 40.3279 66.0289 43.622 66.7095C45.4901 67.0955 47.3873 67.4526 49.2833 67.6212C50.7753 67.7539 52.3582 68.2178 53.8576 68.0343C54.5017 67.9555 55.2317 68.0524 55.8152 68.3964" stroke="white" stroke-width="2" stroke-linecap="round" stroke-linejoin="round"/>
<path d="M54.0225 65.3396C53.7438 66.4081 53.151 68.0082 53.4061 69.146C53.5047 69.5854 53.232 70.6782 53.0764 71.0685" stroke="white" stroke-width="2" stroke-linecap="round" stroke-linejoin="round"/>
<path d="M42.9638 58.6713C44.0922 59.0194 45.1861 59.2376 46.3232 59.4532C47.1789 59.6154 48.1356 59.1706 48.9381 59.6315" stroke="white" stroke-width="2" stroke-linecap="round" stroke-linejoin="round"/>
<path d="M37.4561 62.4141C37.3933 63.5015 37.5784 64.5687 37.4627 65.6139C37.3735 66.4193 37.3945 67.706 36.9864 68.4167" stroke="white" stroke-width="2" stroke-linecap="round" stroke-linejoin="round"/>
<path d="M39.9225 75.1082C40.7887 75.3089 41.7798 75.6741 42.6469 75.7577C43.2828 75.819 43.9547 75.762 44.5804 75.8967C45.2388 76.0384 46.1493 76.2589 46.7623 75.9953" stroke="white" stroke-width="2" stroke-linecap="round" stroke-linejoin="round"/>
<path d="M42.1025 62.9285C43.3969 64.3816 44.1526 66.0793 45.2041 67.7017C46.0911 69.0701 46.9027 70.6677 47.9844 71.882" stroke="white" stroke-width="2" stroke-linecap="round" stroke-linejoin="round"/>
<path d="M40.4513 70.2164C41.5824 69.2472 43.0175 68.6285 44.1061 67.6587C44.5853 67.2318 45.4356 66.7706 46.0487 66.5745C47.2007 66.2062 48.6176 65.2685 49.5204 64.4643" stroke="white" stroke-width="2" stroke-linecap="round" stroke-linejoin="round"/>
</svg>
