<svg width="100" height="100" viewBox="0 0 100 100" fill="none" xmlns="http://www.w3.org/2000/svg">
<path d="M71.293 37.5948C73.9265 39.6781 74.5444 42.9313 74.9165 46.1212L74.9992 51.1455C75.4853 55.3126 71.9759 62.279 68.5464 64.8745C66.7365 66.2443 65.1919 68.9014 62.7569 69.1855L54.5625 70.1414C49.2858 70.7569 43.8723 71.0262 39.2976 67.7831C35.0225 64.7524 31.6383 61.1244 32.2295 55.3796C32.831 49.5339 32.942 44.6017 36.1448 39.3177C38.5226 35.3949 45.5855 30.9173 50.1762 30.3818C52.9734 30.0555 55.7015 30.744 58.4865 30.4192C60.0355 30.2385 64.125 31.2735 65.2613 32.3975C66.2614 33.3867 67.8443 33.965 68.9589 34.8467C69.9299 35.6148 70.3379 36.8392 71.293 37.5948Z" stroke="#202020" stroke-width="3" stroke-linecap="round" stroke-linejoin="round"/>
<path d="M67.5708 25.8599C68.4292 24.2399 69.2876 22.62 70.146 21" stroke="#202020" stroke-width="3" stroke-linecap="round" stroke-linejoin="round"/>
<path d="M82.6925 43.7755C84.0349 44.4482 85.3503 44.7955 86.799 45.1027" stroke="#202020" stroke-width="3" stroke-linecap="round" stroke-linejoin="round"/>
<path d="M72.1936 71.5977C73.4293 72.9234 74.5337 74.5339 75.4296 76.1102C75.7611 76.6936 76.5356 77.1551 76.5192 77.8508" stroke="#202020" stroke-width="3" stroke-linecap="round" stroke-linejoin="round"/>
<path d="M42.793 75.8237C42.0906 77.1491 41.3883 78.4746 40.686 79.8" stroke="#202020" stroke-width="3" stroke-linecap="round" stroke-linejoin="round"/>
<path d="M20.3419 55.722C19.0139 55.0922 17.6957 54.931 16.2749 54.8244C15.6154 54.775 14.5264 53.9662 13.9999 54.342" stroke="#202020" stroke-width="3" stroke-linecap="round" stroke-linejoin="round"/>
<path d="M34.9475 29.2268C33.6959 27.6211 32.5366 25.8488 31.3752 24.2217" stroke="#202020" stroke-width="3" stroke-linecap="round" stroke-linejoin="round"/>
</svg>
