<svg width="100" height="100" viewBox="0 0 100 100" fill="none" xmlns="http://www.w3.org/2000/svg">
<path d="M66.5783 69.8019C48.1552 66.8265 47.5783 55.1558 47.5783 42.1195C47.5783 37.4557 50.5783 28.83 50.5783 28.83C50.5783 28.83 59.0783 19.7251 63.0783 16.8282C65.2031 16.0465 55.0227 16.0206 52.5783 16.0004C47.0227 15.9544 40.0783 19.7252 36.5783 21.7945C33.0783 23.8638 27.3691 30.0716 25.5228 33.3824C22.5227 38.7625 22.2099 50.0132 24.5227 58.6278C26.5622 66.2243 31.8103 75.4974 41.0783 78.9068C48.5928 81.6712 60.1785 86.3193 67.3561 80.3783C70.1507 78.0651 74.168 75.5451 76.0783 72.6989C79.1011 68.1954 71.8679 69.8019 67.5783 69.8019" stroke="#202020" stroke-width="3" stroke-linecap="round" stroke-linejoin="round"/>
</svg>
