<svg width="100" height="100" viewBox="0 0 100 100" fill="none" xmlns="http://www.w3.org/2000/svg">
<path d="M60.024 65C54.2383 72.8685 51.4925 75 42.024 75C36.1864 75 32.409 72.4828 31.0795 66.5C30.2617 62.8195 19.0344 66 15.024 66C10.8609 66 4.02398 62.2793 4.02398 57.5C4.02398 51.9127 3.32127 44.7568 9.52398 42C12.328 40.7538 13.8998 40 17.024 40C19.9017 40 23.8882 41.3088 24.024 37.7778C24.2985 30.6404 29.6188 27.2567 35.524 25.9444C38.2926 25.3292 40.5506 25 43.524 25C46.7127 25 48.3181 26.6817 51.024 27C54.2269 27.3768 54.8642 30.444 55.024 33C55.0808 33.9088 59.803 31 61.024 31C66.2984 31 70.8865 28.5911 75.9684 31.5556C81.149 34.5775 83.024 39.2902 83.024 45C83.024 47.9626 81.7523 49.5834 79.8018 51.7778C79.537 52.0756 85.2315 51.7683 86.524 52.0556C91.6562 53.1961 95.024 59.6826 95.024 64.5C95.024 71.083 89.7996 71.0997 85.024 73.2222C78.1331 76.2848 63.522 73.9961 60.024 67" stroke="#202020" stroke-width="3" stroke-linecap="round" stroke-linejoin="round"/>
</svg>
