<svg width="100" height="100" viewBox="0 0 100 100" fill="none" xmlns="http://www.w3.org/2000/svg">
<path fill-rule="evenodd" clip-rule="evenodd" d="M68.6032 35.9965C69.4297 35.9395 70.0534 35.2233 69.9964 34.3969C69.9394 33.5704 69.2233 32.9466 68.3968 33.0036C58.7993 33.6655 51.4816 33.4463 44.0814 33.2246C40.3435 33.1127 36.5845 33.0001 32.5 33.0001C31.6716 33.0001 31 33.6716 31 34.5001C31 35.3285 31.6716 36.0001 32.5 36.0001C36.4162 36.0001 40.1012 36.1097 43.8069 36.2199C51.2946 36.4427 58.867 36.668 68.6032 35.9965ZM54.6656 50.9909C63.5553 50.0031 70.4268 50.3288 77.4294 50.6608C80.9914 50.8296 84.5873 51 88.5 51C89.3284 51 90 50.3285 90 49.5C90 48.6716 89.3284 48 88.5 48C84.8552 48 81.3784 47.8371 77.8684 47.6727C70.7255 47.338 63.4455 46.9969 54.3344 48.0092C53.511 48.1007 52.9177 48.8423 53.0092 49.6657C53.1007 50.489 53.8423 51.0824 54.6656 50.9909ZM11.5 52.0001C16.7379 52.0001 21.9965 51.7481 27.1782 51.4983L27.2672 51.494C32.4312 51.2452 37.5166 51.0001 42.5 51.0001C43.3284 51.0001 44 50.3285 44 49.5001C44 48.6716 43.3284 48.0001 42.5 48.0001C37.4441 48.0001 32.2977 48.2481 27.159 48.4958L27.159 48.4958L27.0338 48.5018C21.8408 48.7521 16.6539 49.0001 11.5 49.0001C10.6716 49.0001 10 49.6716 10 50.5001C10 51.3285 10.6716 52.0001 11.5 52.0001ZM67.9964 65.3969C68.0534 66.2233 67.4297 66.9395 66.6032 66.9965C56.8671 67.668 49.2946 67.4427 41.807 67.2199H41.8069C38.1012 67.1097 34.4162 67.0001 30.5 67.0001C29.6716 67.0001 29 66.3285 29 65.5001C29 64.6716 29.6716 64.0001 30.5 64.0001C34.5844 64.0001 38.3433 64.1127 42.0811 64.2246H42.0812L42.0814 64.2246C49.4816 64.4463 56.7993 64.6655 66.3968 64.0036C67.2233 63.9466 67.9394 64.5704 67.9964 65.3969Z" fill="black"/>
</svg>
