<svg width="100" height="100" viewBox="0 0 100 100" fill="none" xmlns="http://www.w3.org/2000/svg">
<path d="M9 34.5C9 41.1667 9 47.8333 9 54.5" stroke="#202020" stroke-width="3" stroke-linecap="round" stroke-linejoin="round"/>
<path d="M29.5 52C29.5 60.1667 29.5 68.3333 29.5 76.5" stroke="#202020" stroke-width="3" stroke-linecap="round" stroke-linejoin="round"/>
<path d="M49 44C49 47.5 49 51 49 54.5" stroke="#202020" stroke-width="3" stroke-linecap="round" stroke-linejoin="round"/>
<path d="M67 13C67 18 67 23 67 28" stroke="#202020" stroke-width="3" stroke-linecap="round" stroke-linejoin="round"/>
<path d="M37.5 8C37.5 14.1667 37.5 20.3333 37.5 26.5" stroke="#202020" stroke-width="3" stroke-linecap="round" stroke-linejoin="round"/>
<path d="M72 72.5C72 79.3333 72 86.1667 72 93" stroke="#202020" stroke-width="3" stroke-linecap="round" stroke-linejoin="round"/>
<path d="M91 40.5C91 45.5185 91 50.537 91 55.5556C91 57.2594 91.4782 59.5327 90.5 61" stroke="#202020" stroke-width="3" stroke-linecap="round" stroke-linejoin="round"/>
</svg>
